<mxfile host="app.diagrams.net" modified="2024-01-13T10:01:30.886Z" agent="Mozilla/5.0 (Windows NT 10.0; Win64; x64) AppleWebKit/537.36 (KHTML, like Gecko) Chrome/120.0.0.0 Safari/537.36" version="22.1.18" etag="OmEIrhVjtZ7XBLnXgQG3" type="github">
  <diagram name="Page-1" id="SyNJp_tT4uy5Q09B8uNA">
    <mxGraphModel>
      <root>
        <mxCell id="0" />
        <mxCell id="1" parent="0" />
      </root>
    </mxGraphModel>
  </diagram>
</mxfile>
